<svg xmlns="http://www.w3.org/2000/svg" version="1.1" xmlns:xlink="http://www.w3.org/1999/xlink" xmlns:svgjs="http://svgjs.dev/svgjs" width="1500" height="1500" viewBox="0 0 1500 1500"><rect width="1500" height="1500" fill="#000000"></rect><g transform="matrix(0.6666666666666666,0,0,0.6666666666666666,250.00017081513073,187.66666666666674)"><svg viewBox="0 0 320 360" data-background-color="#111111" preserveAspectRatio="xMidYMid meet" height="1687" width="1500" xmlns="http://www.w3.org/2000/svg" xmlns:xlink="http://www.w3.org/1999/xlink"><g id="tight-bounds" transform="matrix(1,0,0,1,0.00005466084189720277,0)"><svg viewBox="0 0 320 360" height="360" width="320"><g><svg></svg></g><g><svg viewBox="0 0 320 360" height="360" width="320"><g><path transform="translate(-119.39272,-98.31927) scale(5.58313,5.58313)" d="M36.7 23.5c0-0.2 0.1-0.4 0.3-0.4 0.2 0 0.4 0.1 0.4 0.4 0.1 0 0.3 0 0.4-0.1 0.4 0 0.8-0.1 1.1 0 0.3 0.1 0.5 0.1 0.8 0.2 0.3 0.1 0.5 0 0.7-0.1 0.4-0.1 0.7-0.3 1.1-0.4 0.2-0.1 0.3-0.1 0.5-0.1 0.2-0.1 0.4-0.1 0.7-0.2 0.5-0.1 1-0.2 1.4-0.4 0.4-0.2 0.8-0.2 1.2-0.3 0.2 0 0.3-0.1 0.5-0.2 0.1 0 0.1-0.1 0.2-0.2 0.2-0.1 0.3-0.2 0.5-0.1 0.1 0.1 0.3 0.1 0.4 0h0.1c0.6 0 1.2-0.1 1.9 0 0.1 0 0.2 0 0.2 0 0.3-0.2 0.7-0.2 1.1-0.2 0.1 0 0.3 0 0.4 0h0.1c0.4 0 0.8 0 1.1 0.1 0.3 0 0.5 0.1 0.8 0.2 0.3 0 0.5 0 0.8 0.1 0.2 0 0.4 0 0.6 0 0.1 0 0.2 0 0.2 0 0.4 0.1 0.8 0.1 1.2 0.1 0.3 0.1 0.6 0.2 1 0.2 0.1 0 0.2 0 0.3 0 0.1 0 0.2 0.1 0.3 0.1l0.1 0.1c0.4 0 0.7 0.2 1.1 0.2 0.1 0 0.3 0 0.4 0.1 0.3 0.2 0.7 0.3 1.1 0.3 0.2 0 0.3 0.1 0.4 0.2 0.3 0.1 0.5 0.2 0.8 0.3 0.2 0.1 0.4 0 0.6 0.1 0.3 0.1 0.7 0.2 1 0.5 0.2 0.2 0.4 0.2 0.7 0.4 0.1 0 0.2 0.1 0.3 0.2 0.3 0.2 0.6 0.4 0.9 0.5 0.1 0 0.2 0.1 0.3 0.1 0.3 0.2 0.6 0.5 1 0.7 0.2 0.1 0.3 0.2 0.5 0.3h0.1c0.3 0.3 0.7 0.5 1 0.8 0.3 0.3 0.5 0.5 0.9 0.7 0 0 0 0 0 0.1 0.1 0.2 0.2 0.3 0.4 0.4 0.2 0.1 0.3 0.2 0.4 0.3 0.3 0.2 0.6 0.4 0.8 0.6 0.1 0.1 0.2 0.2 0.4 0.4 0.1 0.1 0.2 0.2 0.3 0.2 0.4 0.1 0.6 0.4 0.9 0.7 0.2 0.2 0.5 0.5 0.7 0.7 0.1 0.1 0.2 0.3 0.3 0.5 0.2 0.6 0.5 1.2 0.8 1.7 0 0 0 0.1 0.1 0.2v0.1c0.2 0.2 0.3 0.5 0.5 0.7 0.1 0.1 0.1 0.2 0.2 0.3 0.2 0.3 0.3 0.7 0.5 1 0.3 0.5 0.5 1 0.7 1.5v0.1c0.1 0.2 0.2 0.4 0.3 0.7 0 0.2 0.2 0.4 0.3 0.7 0.1 0.5 0.4 1 0.5 1.6 0 0.1 0.1 0.2 0.1 0.4 0.1 0.3 0.2 0.6 0.3 0.9 0 0.1 0.1 0.2 0.2 0.3 0.2 0.2 0.2 0.4 0.2 0.6-0.1 0.4 0 0.8 0.1 1.2 0 0.1 0 0.2 0 0.4 0.1 0.4 0.2 0.9 0.2 1.3 0 0.1 0 0.3 0 0.4 0 0.3 0.1 0.6 0.3 0.9 0 0.1 0.1 0.1 0.1 0.1 0.1 0.1 0.2 0.3 0.3 0.4 0.1 0.1 0.1 0.1 0.2 0.2 0.2 0.2 0.3 0.4 0.3 0.7 0 0.1-0.1 0.3-0.1 0.4 0 0.1 0 0.3 0.1 0.4 0.1 0.1 0.1 0.2 0.1 0.3 0 0.1-0.1 0.2-0.2 0.2v0c-0.1 0.3-0.5 0.4-0.6 0.7-0.1 0.4-0.2 0.8-0.3 1.2-0.1 0.3-0.1 0.5-0.1 0.8 0 0.3-0.1 0.5-0.1 0.8-0.1 0.4-0.2 0.8-0.3 1.2 0 0.2-0.1 0.4-0.1 0.6 0.1 0.1 0.2 0.2 0.3 0.2 0.2 0.2 0.4 0.4 0.6 0.6 0.1 0.1 0.1 0.2 0 0.2-0.1 0.1-0.2 0.1-0.3 0.1-0.1-0.1-0.3-0.2-0.4-0.2-0.1-0.1-0.3-0.2-0.5-0.1 0 0.2-0.1 0.4-0.1 0.5-0.1 0.2-0.2 0.5-0.2 0.7-0.1 0.4-0.3 0.7-0.4 1.1-0.2 0.5-0.4 0.9-0.6 1.3-0.1 0.2-0.2 0.4-0.3 0.6v0c0 0.3-0.3 0.6-0.4 0.9-0.2 0.4-0.4 0.8-0.6 1.3-0.1 0.2-0.2 0.4-0.3 0.5-0.2 0.5-0.4 0.9-0.7 1.3-0.2 0.3-0.4 0.5-0.6 0.6-0.2 0.2-0.4 0.4-0.6 0.6-0.1 0.1-0.2 0.2-0.3 0.3-0.1 0.1-0.1 0.1-0.2 0.2-0.2 0.3-0.5 0.5-0.7 0.8-0.2 0.2-0.3 0.4-0.6 0.6-0.2 0.2-0.4 0.5-0.7 0.6-0.1 0.1-0.2 0.3-0.3 0.4-0.1 0.1-0.2 0.3-0.3 0.4 0 0.2 0.1 0.4 0.1 0.5 0 0.3-0.3 0.4-0.5 0.2-0.3-0.2-0.3-0.2-0.6 0-0.3 0.2-0.6 0.5-1 0.6-0.1 0-0.1 0.1-0.2 0.1-0.2 0.1-0.3 0.3-0.5 0.4-0.2 0.2-0.5 0.3-0.7 0.5-0.1 0.1-0.2 0.1-0.3 0.2-0.3 0.2-0.6 0.3-0.9 0.6-0.1 0.1-0.2 0.1-0.3 0.2 0 0.1 0 0.1 0 0.2 0 0.2-0.2 0.4-0.5 0.3-0.3-0.1-0.5 0-0.8 0-0.3 0.1-0.6 0.3-0.9 0.4-0.1 0-0.2 0.1-0.3 0.2-0.3 0.2-0.6 0.3-0.9 0.4-0.2 0-0.4 0.2-0.6 0.2-0.1 0-0.2 0.1-0.3 0.1h-0.1c-0.4 0.3-0.8 0.5-1.2 0.8-0.1 0-0.1 0.1-0.2 0.2-0.1 0.2-0.2 0.3-0.4 0.3-0.5 0-0.7 0.4-0.6 0.8 0 0.1 0.1 0.2 0.1 0.3 0.1 0.2 0 0.4-0.1 0.5-0.1 0.1-0.4 0.1-0.5-0.1-0.2-0.2-0.3-0.4-0.4-0.7-0.1-0.2-0.3-0.4-0.5-0.5-0.2-0.1-0.4-0.1-0.6 0-0.1 0-0.1 0.1-0.2 0.1-0.2 0.2-0.5 0.3-0.8 0.2-0.1 0-0.3 0-0.3 0.1-0.1 0.1-0.1 0.3 0 0.4 0.2 0.2 0.1 0.4 0.1 0.7 0 0.4-0.3 0.6-0.7 0.4-0.1-0.1-0.2-0.1-0.3-0.2-0.1 0-0.1-0.1-0.1-0.2-0.1-0.1-0.1-0.3-0.2-0.5-0.2 0.1-0.4 0.1-0.6 0.2-0.1 0-0.2 0.1-0.3 0.1-0.3 0-0.4 0-0.5-0.3-0.1-0.3-0.3-0.3-0.5-0.4-0.4-0.1-0.9-0.1-1.3-0.3h-0.1c-0.4-0.3-0.8-0.3-1.3-0.3-0.3 0-0.6 0.1-0.9 0.1-0.3 0-0.5 0.1-0.7 0.3-0.1 0.1-0.2 0.2-0.3 0.2-0.1-0.1-0.1-0.2-0.2-0.3v-0.1c0-0.1-0.1-0.2-0.2-0.1-0.2 0.1-0.4-0.1-0.6-0.2-0.1-0.1-0.3-0.3-0.3-0.5-0.1-0.1-0.2-0.2-0.3-0.2-0.2 0-0.5-0.1-0.7-0.1-0.1 0-0.2 0-0.2-0.1-0.1-0.1-0.2-0.1-0.4-0.1-0.1 0-0.1-0.1-0.2-0.1 0.2 0.2 0.3 0.4 0.4 0.6 0 0.1 0.1 0.1 0.1 0.2 0.1 0.2 0 0.3-0.3 0.3-0.2 0-0.2 0-0.3 0.1 0 0.2 0 0.3 0 0.5 0 0.1 0 0.2-0.2 0.3 0 0-0.1 0-0.1 0.1-0.1 0.1-0.1 0.2 0 0.3 0.3 0.2 0.5 0.3 0.8 0.4 0.3 0 0.3 0.2 0.4 0.4 0.1 0.2 0 0.3-0.1 0.5-0.2 0.2-0.4 0.4-0.6 0.6-0.3 0.1-0.5 0.4-0.8 0.4-0.2 0-0.4-0.1-0.5-0.3-0.1-0.5-0.1-0.9 0.1-1.4 0-0.1 0.1-0.2 0-0.3-0.9 0-0.9-0.2-0.9-0.3 0-0.2 0.1-0.3 0.1-0.5 0.1-0.2 0-0.3-0.3-0.4-0.1 0-0.2 0-0.3 0-0.1 0-0.1-0.1-0.3-0.1 0.2-0.1 0.3-0.1 0.5-0.2-0.1-0.4-0.2-0.7-0.5-0.9-0.1-0.1-0.2-0.2-0.2-0.4 0-0.3-0.2-0.5-0.3-0.7-0.2-0.3-0.6-0.4-0.9-0.4-0.3-0.1-0.5-0.1-0.8-0.2-0.3-0.1-0.6-0.4-0.9-0.5-0.1-0.1-0.2-0.2-0.4-0.3-0.4-0.2-0.7-0.5-1-0.8-0.2-0.1-0.3-0.3-0.5-0.4-0.2-0.2-0.3-0.4-0.5-0.5-0.2-0.2-0.4-0.4-0.7-0.6-0.3-0.2-0.5-0.5-0.8-0.8-0.2-0.3-0.5-0.5-0.8-0.7-0.1 0-0.2 0-0.3 0-0.1 0-0.2 0.1-0.3 0.1-0.3 0.1-0.5 0.3-0.8 0.4 0.1-0.1 0.1-0.1 0-0.3-0.1-0.1-0.2-0.2-0.3-0.2-0.2 0-0.4 0-0.6 0-0.4 0-0.8 0.1-1.2 0.1-0.3 0-0.7 0.1-1 0.2 0.1 0.2 0.1 0.3 0.2 0.5-0.2 0.1-0.4 0.1-0.6 0.1-0.1 0-0.3 0.1-0.4 0.2-0.1 0-0.1 0.1-0.2 0-0.2-0.1-0.4 0-0.6 0.1h-0.1c0 0 0-0.1 0.1-0.1 0.1-0.1 0.2-0.2 0.3-0.3 0.1-0.1 0.2-0.1 0.4-0.2-0.1-0.1-0.1-0.2-0.1-0.2-0.1-0.1-0.2-0.1-0.3 0-0.1 0.1-0.2 0.2-0.3 0.3-0.1 0.1-0.2 0.1-0.3 0-0.1-0.1-0.1-0.2 0-0.3 0-0.1 0.1-0.2 0.2-0.3 0.1-0.1 0.1-0.2 0.2-0.3-0.2-0.2-0.3-0.4-0.5-0.5-0.3-0.2-0.6-0.5-0.8-0.8-0.2-0.4-0.5-0.7-0.9-0.9-0.1-0.1-0.2-0.2-0.3-0.3-0.1-0.1-0.1-0.1-0.2-0.2-0.3 0.1-0.5 0.3-0.8 0.4-0.1 0-0.1 0.1-0.2 0.2-0.1 0.2-0.3 0.2-0.5 0.2-0.1 0-0.2-0.1-0.1-0.2 0.1-0.2 0.2-0.4 0.5-0.3 0 0 0.1 0 0.1-0.1 0.2-0.2 0.4-0.5 0.7-0.7-0.1-0.3-0.3-0.5-0.4-0.7-0.1-0.1-0.1-0.2-0.1-0.4 0-0.1 0-0.1-0.1-0.2 0 0-0.1 0-0.2 0.1-0.1 0.1-0.3 0.2-0.5 0 0-0.1 0-0.2 0.1-0.3l0.1-0.1c0.3-0.1 0.3-0.4 0.3-0.7v-0.1c-0.1-0.2-0.1-0.3 0.1-0.5 0.3-0.2 0.6-0.6 0.7-0.9 0.1-0.2 0.3-0.3 0.5-0.5 0.2-0.2 0.4-0.4 0.5-0.7h0.1c0.4 0.1 0.5-0.2 0.7-0.5 0-0.1 0-0.2 0.1-0.2 0.2-0.2 0.2-0.4 0.1-0.7 0-0.1-0.1-0.3-0.1-0.4 0-0.1 0-0.1-0.1-0.2-0.3-0.2-0.3-0.4 0-0.6 0.2-0.1 0.2-0.3 0.3-0.4 0.1-0.2 0.1-0.4 0.1-0.7-0.1-0.3-0.1-0.7-0.2-1-0.1-0.4-0.2-0.9-0.3-1.3 0-0.1 0-0.1 0-0.2 0-0.3 0-0.5-0.1-0.8-0.1-0.1-0.1-0.3-0.1-0.4-0.1-0.3-0.2-0.5-0.5-0.6-0.3-0.2-0.7-0.3-1-0.5-0.1-0.1-0.2 0-0.3 0.1-0.1 0.2-0.3 0.4-0.4 0.6-0.1 0.1-0.2 0.3-0.3 0.5-0.2 0.2-0.6 0.4-0.9 0.1-0.1-0.2-0.2-0.3 0-0.5 0.2-0.3 0.4-0.6 0.7-0.8 0.1-0.1 0.2-0.3 0.3-0.4 0.1-0.2 0.1-0.4 0.1-0.6-0.1-0.4-0.2-0.8-0.2-1.3 0-0.5 0-0.9 0.1-1.4 0.1-0.2 0.1-0.5 0.2-0.7 0-0.1 0.1-0.3 0.2-0.4 0.2-0.2 0.4-0.4 0.5-0.7 0.1-0.3 0.3-0.6 0.3-0.9 0-0.1 0.1-0.2 0.1-0.3 0-0.1 0.1-0.3 0.1-0.4-0.1-0.3 0-0.5 0.1-0.7 0.1-0.2 0.2-0.5 0.3-0.7 0.2-0.4 0.2-0.9 0.6-1.3 0.1-0.2 0.2-0.4 0.3-0.6 0.1-0.4 0.3-0.7 0.5-1 0.1-0.1 0.1-0.1 0.1-0.2 0.1-0.3 0.3-0.6 0.5-0.9 0.2-0.3 0.2-0.6 0.3-0.9 0-0.1 0-0.2 0.1-0.3 0.3-0.3 0.2-0.7 0.1-1.1-0.2-0.5-0.3-1-0.2-1.5 0-0.1 0-0.2 0.1-0.2 0.1-0.2 0.1-0.3 0.2-0.5v-0.1c0.2-0.2 0.4-0.5 0.7-0.6 0.4-0.2 0.8-0.3 1.3-0.4 0.4 0 0.8-0.2 1.1-0.6 0-0.1 0.1-0.1 0.2-0.2l0.1-0.1c0.1-0.2 0.2-0.3 0.3-0.4 0.2-0.2 0.4-0.5 0.6-0.7 0.2-0.2 0.4-0.5 0.7-0.8l0.1-0.1c0.2-0.2 0.4-0.4 0.6-0.5 0.2-0.2 0.4-0.4 0.6-0.6 0.2-0.2 0.3-0.4 0.5-0.6 0.2-0.1 0.4-0.3 0.6-0.5 0.2-0.2 0.4-0.4 0.5-0.5 0.2-0.2 0.5-0.4 0.7-0.5 0.2-0.1 0.4-0.2 0.5-0.5 0.1-0.3 0.2-0.5 0.3-0.8 0-0.2 0.1-0.4 0.2-0.6 0.1 0 0.2 0 0.4-0.1-0.1-0.1-0.2-0.1-0.2-0.2 0-0.1 0.1-0.2 0.1-0.2 0-0.1 0.1-0.2 0.1-0.3 0 0 0.1 0 0.1-0.1 0 0 0.1 0 0.1-0.1-0.2 0.1-0.3 0-0.4-0.1 0.1 0.1 0.2 0.1 0.4 0.2 0 0 0.1 0 0.1-0.1 0-0.1 0-0.2 0-0.2 0 0-0.1 0-0.2 0-0.1 0-0.2 0.1-0.3 0.1zM54 70.5c0-0.1-0.1-0.1-0.1-0.2-0.1-0.2 0-0.3 0.1-0.4 0.1-0.1 0.2-0.1 0.4-0.1 0.2 0.1 0.3 0.2 0.3 0.4 0 0.1 0 0.3 0 0.4 0.1 0.4 0.1 0.4 0.5 0.4 0.2 0 0.4 0 0.6 0 0.4-0.1 0.8-0.3 1.2-0.4 0.4-0.1 0.8-0.2 1.2-0.3 0.1 0 0.2 0 0.4 0 0.4 0.1 0.7 0 1-0.2 0.1-0.1 0.3-0.1 0.4-0.2 0.2-0.1 0.4-0.1 0.6-0.2 0.5-0.3 1-0.5 1.4-0.8 0.3-0.2 0.6-0.4 0.9-0.6 0.3-0.2 0.6-0.4 0.9-0.6 0.2-0.1 0.5-0.3 0.7-0.5 0.4-0.3 0.7-0.6 1.1-0.8 0.2-0.1 0.3-0.2 0.4-0.3 0.2-0.1 0.3-0.3 0.5-0.4 0.1-0.1 0.2-0.2 0.4-0.3 0.1-0.1 0.1-0.1 0.1-0.2 0.3-0.2 0.6-0.6 0.8-0.9 0.2-0.2 0.4-0.4 0.6-0.7 0.3-0.3 0.5-0.7 0.8-1.1 0.2-0.2 0.4-0.5 0.5-0.7 0.2-0.4 0.4-0.8 0.7-1.1v-0.1c0.2-0.4 0.4-0.8 0.6-1.2 0.3-0.5 0.5-1.1 0.8-1.6 0.1-0.2 0.2-0.4 0.2-0.6 0.2-0.4 0.3-0.8 0.4-1.2 0-0.1 0-0.1 0.1-0.2 0.3-0.6 0.5-1.2 0.6-1.9 0.1-0.4 0.2-0.8 0.3-1.2 0.2-0.6 0.2-1.1 0.3-1.7 0.1-0.4 0.1-0.9 0.1-1.3 0.1-0.6 0.1-1.3 0-1.9 0-0.5-0.1-1.1-0.1-1.6 0-0.5-0.1-0.9-0.2-1.4-0.1-0.5-0.2-0.9-0.3-1.4-0.2-0.4-0.3-0.8-0.4-1.3-0.1-0.4-0.3-0.7-0.3-1.1 0-0.3-0.1-0.6-0.4-0.7-0.3-0.1-0.5-0.2-0.8-0.4-0.6-0.4-0.9-0.9-0.8-1.5 0-0.3 0.1-0.7 0.2-1 0.1-0.3 0.2-0.6 0-0.8-0.1-0.3-0.3-0.5-0.4-0.7-0.2-0.3-0.3-0.5-0.5-0.7-0.2-0.4-0.4-0.8-0.7-1.1-0.4-0.5-0.7-1-1.2-1.4l-0.1-0.1c-0.3-0.4-0.6-0.8-1-1.1-0.2-0.2-0.4-0.4-0.6-0.5-0.1-0.1-0.2-0.2-0.4-0.3-0.3-0.2-0.6-0.3-0.8-0.5-0.3-0.3-0.7-0.5-1-0.7 0 0-0.1 0-0.1-0.1-0.4-0.2-0.7-0.3-1.1-0.5-0.4-0.2-0.8-0.3-1.2-0.3-0.1 0-0.1 0-0.2 0-0.1-0.1-0.3-0.1-0.4-0.1-0.1 0-0.1 0-0.2 0-0.2-0.1-0.5 0-0.7 0-0.4 0.1-0.8 0.1-1.2-0.1-0.5-0.2-0.9-0.4-1.3-0.6-0.3-0.2-0.5-0.4-0.8-0.6-0.6-0.5-1.2-1.1-1.9-1.6 0.1-0.5-0.1-0.6-0.5-0.6-0.2 0-0.4 0.1-0.6 0.2-0.1 0.1-0.1 0.1-0.2 0.2-0.3 0.2-0.5 0.5-0.8 0.7-0.5 0.3-0.7 0.2-1.1 0-0.1-0.1-0.2-0.2-0.3-0.3-0.2-0.2-0.4-0.5-0.5-0.7-0.2-0.4-0.6-0.4-1-0.4-0.2 0-0.5 0.1-0.7 0.1-0.4 0-0.8 0.2-1 0.5-0.2 0.3-0.4 0.6-0.7 0.9-0.1 0.1-0.3 0.2-0.4 0.4-0.2 0.2-0.4 0.2-0.6 0-0.1-0.1-0.2-0.1-0.3-0.2-0.1 0.1-0.2 0.2-0.2 0.3-0.1 0.2-0.2 0.4-0.3 0.7-0.1 0.3-0.3 0.6-0.5 0.8-0.1 0.1-0.1 0.1-0.2 0.2-0.1 0.2-0.4 0.3-0.6 0.3-0.2 0.2-0.4 0.5-0.5 0.7-0.1 0.2-0.2 0.4-0.3 0.7-0.1 0.1-0.1 0.3-0.2 0.4-0.1 0.2-0.1 0.3-0.1 0.5 0.1 0.3-0.1 0.4-0.4 0.5-0.2 0-0.2 0-0.3 0.2 0 0.3 0.1 0.5 0.2 0.8 0.1 0.1 0.2 0.3 0.2 0.4 0 0.2 0.1 0.3 0.3 0.4 0.1 0.1 0.2 0.2 0.3 0.2 0.1 0 0.1 0.1 0.2 0.1 0.1 0.1 0.2 0 0.2-0.1 0.1-0.3 0.2-0.6 0.2-0.9 0.1-0.4 0.1-0.7 0.2-1.1 0.1-0.2 0.2-0.3 0.3-0.4 0 0 0.1 0 0.2 0v0.1c-0.1 0.5-0.3 1.1-0.4 1.6-0.1 0.2-0.1 0.4-0.2 0.6 0 0.1-0.1 0.2-0.2 0.2-0.2 0.1-0.4 0.2-0.6 0.2-0.1 0-0.2 0-0.3 0-0.2-0.1-0.4-0.3-0.6-0.4-0.1-0.1-0.2-0.2-0.3-0.3-0.1-0.2-0.2-0.4-0.3-0.6-0.1-0.2-0.2-0.3-0.4-0.4-0.1-0.1-0.2-0.1-0.3-0.2-0.2-0.2-0.4-0.3-0.7-0.3-0.1 0-0.3 0-0.4 0-0.1 0-0.3 0.1-0.4 0.2-0.2 0.1-0.3 0.1-0.5 0-0.5-0.2-1-0.1-1.5 0.1-0.2 0.1-0.4 0.2-0.6 0.2-0.5 0-0.9 0-1.4 0-0.5 0-0.9-0.1-1.4-0.2-0.2 0-0.4 0-0.6 0-0.4 0.1-0.5 0.4-0.4 0.8 0.1 0.4 0.2 0.9 0.2 1.3 0 0.3 0 0.6 0 0.9 0 0.2 0 0.3 0 0.5 0 0.3-0.1 0.6-0.1 0.9-0.1 0.6-0.4 1.1-0.8 1.5-0.3 0.3-0.7 0.6-1.1 0.7-0.2 0.1-0.4 0.2-0.7 0.3-0.5 0.2-0.9 0.6-1.2 1.1-0.1 0.2-0.2 0.4-0.3 0.6-0.2 0.3-0.3 0.5-0.5 0.8-0.1 0.2-0.3 0.4-0.4 0.6-0.1 0.2-0.3 0.3-0.3 0.5-0.2 0.4-0.3 0.8-0.5 1.2-0.1 0.2-0.1 0.5-0.2 0.7-0.2 0.4-0.2 0.8-0.2 1.3 0 0.1 0 0.2 0 0.4 0 0.5-0.1 1.1-0.1 1.6 0 0.5 0 1 0.1 1.5 0 0.2 0 0.5 0 0.7 0 0.4 0.1 0.9 0.1 1.3 0 0.4 0 0.9 0.2 1.3v0.1c0.1 0.4 0.1 0.8 0.2 1.2 0 0.1 0 0.2 0.1 0.3 0.2 0.6 0.3 1.1 0.5 1.7 0.1 0.4 0.3 0.8 0.4 1.2 0.1 0.4 0.5 0.8 0.6 1.3v0c0.3 0.6 0.6 1.2 1 1.8 0.1 0.2 0.3 0.4 0.4 0.6 0.2 0.3 0.3 0.6 0.5 0.8 0.1 0.2 0.3 0.4 0.4 0.5 0.1 0.2 0.2 0.4 0.4 0.6 0.2 0.2 0.4 0.5 0.6 0.7 0.3 0.5 0.7 0.9 1.1 1.2 0.2 0.2 0.4 0.3 0.6 0.5 0.1 0.1 0.2 0.1 0.2 0.2 0.1 0.1 0.2 0.2 0.4 0.3 0.8 0.4 1.4 1 2.1 1.6 0.3 0.3 0.6 0.6 1 0.8 0.4 0.3 0.7 0.6 1.2 0.7 0 0 0.1 0 0.1 0.1 0.2 0.2 0.5 0.3 0.7 0.4 0.4 0.2 0.9 0.4 1.3 0.6 0.1 0.1 0.3 0.1 0.4 0.2 0.3 0.1 0.6 0.2 0.9 0.3 0.3 0.1 0.5 0.2 0.8 0.2h0.1c0.2 0.1 0.3 0.1 0.5 0 0.1 0 0.2 0 0.2 0.1 0 0.1 0.1 0.1 0.2 0.1 0.1 0 0.2 0 0.4 0 0.1-0.1 0.1-0.2 0.2-0.4 0.1 0.1 0.2 0.1 0.2 0.1 0.1 0.2 0.3 0.2 0.5 0.2h0.1c0.2 0 0.3 0 0.4-0.1 0-0.1 0.2-0.1 0.3-0.1 0.3 0.1 0.6 0.1 0.9 0.2 0.2 0.1 0.5 0.1 0.6-0.1 0.1-0.1 0.2-0.2 0.4-0.1 0.2 0.1 0.3 0.1 0.5 0 0.1 0 0.2 0 0.2 0 0.3 0.1 0.5 0.1 0.8 0.2 0.4 0.1 0.4 0.1 0.7-0.2 0.1-0.1 0.3-0.1 0.4 0 0.1 0.2 0.1 0.3 0.1 0.5 0.1 0 0.1 0 0.2-0.1 0-0.2 0.1-0.2 0.3-0.3 0.1 0.1 0.1 0.1 0.2 0.1 0.2 0.2 0.3 0.2 0.4-0.1 0-0.1 0-0.2 0.1-0.2 0.1 0 0.2 0.1 0.2 0.1 0.1 0.2 0.3 0.3 0.4 0.5 0.2 0.2 0.5 0.2 0.6 0 0.1-0.1 0.2-0.1 0.3-0.1 0-0.1 0-0.2 0-0.3 0.3 0.2 0.2 0.2 0.1 0.2zM37.4 23.8c0.3 0.1 0.5 0.1 0.6-0.1-0.2 0.1-0.4-0.1-0.6 0.1z" fill="#ffffff" fill-rule="nonzero" stroke="none" stroke-width="1" stroke-linecap="butt" stroke-linejoin="miter" stroke-miterlimit="10" stroke-dasharray="" stroke-dashoffset="0" font-family="none" font-weight="none" font-size="none" text-anchor="none" style="mix-blend-mode: normal" data-fill-palette-color="tertiary"></path></g><g transform="matrix(1,0,0,1,64,121.55991470877977)"><svg viewBox="0 0 192 116.88017058244046" height="116.88017058244046" width="192"><g><svg viewBox="0 0 192 116.88017058244046" height="116.88017058244046" width="192"><g transform="matrix(1,0,0,1,0,86.96460966567327)"><svg viewBox="0 0 192 29.915560916767195" height="29.915560916767195" width="192"><g id="textblocktransform"><svg viewBox="0 0 192 29.915560916767195" height="29.915560916767195" width="192" id="textblock"><g><svg viewBox="0 0 192 29.915560916767195" height="29.915560916767195" width="192"><g transform="matrix(1,0,0,1,0,0)"><svg width="192" viewBox="1 -37.8 248.68 38.75" height="29.915560916767195" data-palette-color="#ff0000"><path d="M6.05-17.25L6.05-20.1 6.1-25.5Q6.1-29.3 5.8-31.45L5.8-31.45Q5.65-32.7 4.48-33.4 3.3-34.1 2.43-34.1 1.55-34.1 1.28-34.43 1-34.75 1-34.95L1-34.95Q1-35.5 2.4-35.5L2.4-35.5 8.05-35.3 12.45-35.4Q13.55-35.4 13.55-34.7L13.55-34.7Q13.55-33.85 11.8-33.85L11.8-33.85Q10.8-33.85 10.35-31.8 9.9-29.75 9.9-27.6L9.9-27.6 9.9-25.75 9.8-21.15Q9.8-19.9 10.1-19.55 10.4-19.2 11.5-19.2L11.5-19.2 19.7-19.25Q19.7-19.25 29.15-19.15L29.15-19.15Q29.7-19.15 29.7-26.1L29.7-26.1 29.7-28.8Q29.7-32.55 28.2-33.4L28.2-33.4Q27.6-33.75 26.98-33.85 26.35-33.95 25.93-34.13 25.5-34.3 25.5-34.8 25.5-35.3 27.45-35.3L27.45-35.3 32.3-35.2 36.2-35.3Q37.35-35.3 37.35-34.65 37.35-34 36.65-34L36.65-34Q35.25-34 34.52-33.15 33.8-32.3 33.8-30.9L33.8-30.9 33.55-11.25 33.55-9.4 33.75-4.8Q33.75-1.55 37.95-1.1L37.95-1.1Q38.55-1.1 38.55-0.55L38.55-0.55Q38.55-0.2 38.05-0.1 37.55 0 36.1 0L36.1 0 32.25-0.25 27.55 0 26.7 0Q26 0 25.88-0.2 25.75-0.4 25.75-0.68 25.75-0.95 26.25-1.2 26.75-1.45 27.35-1.6 27.95-1.75 28.5-2.2L28.5-2.2Q29.55-2.95 29.55-6.9L29.55-6.9 29.7-15.75Q29.7-16.5 29.1-16.8 28.5-17.1 27.15-17.1 25.8-17.1 23.1-17L23.1-17 20.4-16.95 11.2-17.1Q10.45-17.1 10.2-16.8 9.95-16.5 9.95-15.25L9.95-15.25 9.75-9.1 9.75-6.95Q9.75-4.8 10.15-3.75 10.55-2.7 12.1-1.7L12.1-1.7Q12.5-1.45 13.55-1.45L13.55-1.45Q15.2-1.45 15.2-0.9L15.2-0.9Q15.2 0 13.6 0L13.6 0 9.45-0.2 4.05 0.05Q1.7 0.05 1.7-0.7L1.7-0.7Q1.7-1.4 3.25-1.6L3.25-1.6Q3.85-1.65 4.5-2.23 5.15-2.8 5.35-3.78 5.55-4.75 5.8-9.05 6.05-13.35 6.05-17.25L6.05-17.25ZM45.25-21.55L45.25-21.55 45.2-30.05Q45.2-31.4 44.35-32.73 43.5-34.05 41.55-34.05L41.55-34.05Q40.55-34.05 40.55-34.7L40.55-34.7Q40.55-35.5 41.7-35.5L41.7-35.5 43.55-35.55 46.55-35.4 54.8-35.55Q59.5-35.55 62.9-33.18 66.3-30.8 66.3-26.35L66.3-26.35Q66.3-23.9 65.4-21.98 64.5-20.05 63.22-18.95 61.95-17.85 60.35-17.1L60.35-17.1Q57.8-15.95 55.8-15.95 53.8-15.95 52.15-16.32 50.5-16.7 50.5-17.1L50.5-17.1Q50.5-17.85 51.15-17.85L51.15-17.85Q51.4-17.85 52.17-17.65 52.95-17.45 53.9-17.45 54.85-17.45 56.15-17.78 57.45-18.1 58.85-18.82 60.25-19.55 61.15-21.03 62.05-22.5 62.05-24.45L62.05-24.45Q62.05-27.8 59.35-30.68 56.65-33.55 51.9-33.55L51.9-33.55Q50.35-33.55 49.8-32.63 49.25-31.7 49.25-28.45L49.25-28.45 49.15-7.8Q49.15-2 52.55-1.6L52.55-1.6Q53.4-1.5 53.95-1.5L53.95-1.5Q55.35-1.6 55.35-0.5L55.35-0.5Q55.35 0.35 54.2 0.35L54.2 0.35 47.05 0.1 42.4 0.3Q40.85 0.3 40.85-0.25L40.85-0.25Q40.85-1.1 41.4-1.3L41.4-1.3Q41.65-1.4 41.75-1.45 41.85-1.5 42.22-1.58 42.6-1.65 42.72-1.7 42.85-1.75 43.05-1.78 43.25-1.8 43.32-1.83 43.4-1.85 43.57-1.98 43.75-2.1 43.85-2.33 43.95-2.55 44.12-2.93 44.3-3.3 44.57-4.08 44.85-4.85 45.05-11.4 45.25-17.95 45.25-21.55ZM89.29 0.05L85.14 0 80.84 0.2Q79.39 0.2 79.39-0.4L79.39-0.4Q79.39-1.1 80.14-1.35L80.14-1.35Q81.74-1.95 82.94-4.03 84.14-6.1 88.97-16.57 93.79-27.05 97.54-35.05L97.54-35.05Q97.89-35.8 98.17-36 98.44-36.2 98.97-36.2 99.49-36.2 99.64-36 99.79-35.8 100.19-34.65 100.59-33.5 100.82-32.9 101.04-32.3 101.54-30.95 102.04-29.6 103.14-26.9 104.24-24.2 108.17-15.08 112.09-5.95 112.69-4.73 113.29-3.5 114.34-2.63 115.39-1.75 116.17-1.68 116.94-1.6 117.47-1.43 117.99-1.25 117.99-0.65L117.99-0.65Q117.99 0.1 116.64 0.1L116.64 0.1 112.14-0.2 107.49 0Q105.94 0 105.52-0.13 105.09-0.25 105.09-0.65 105.09-1.05 105.49-1.28 105.89-1.5 106.34-1.58 106.79-1.65 107.19-2.02 107.59-2.4 107.59-3.28 107.59-4.15 106.34-7.55 105.09-10.95 104.24-12.55L104.24-12.55Q103.79-13.4 102.19-13.4L102.19-13.4 96.14-13.3 93.49-13.3Q91.24-13.3 90.67-13.05 90.09-12.8 89.72-12 89.34-11.2 88.64-9.78 87.94-8.35 87.69-7.8 87.44-7.25 87.09-6.4L87.09-6.4Q86.44-4.9 86.44-3.9 86.44-2.9 87.02-2.3 87.59-1.7 88.29-1.6L88.29-1.6Q90.14-1.45 90.14-0.65L90.14-0.65Q90.14-0.3 89.99-0.13 89.84 0.05 89.29 0.05L89.29 0.05ZM97.19-28.5Q96.74-28.5 94.34-22.98 91.94-17.45 91.94-16.85 91.94-16.25 92.39-16.1 92.84-15.95 94.49-15.95L94.49-15.95 96.04-15.95 100.79-16Q102.74-16 102.74-16.73 102.74-17.45 100.29-22.98 97.84-28.5 97.19-28.5L97.19-28.5ZM130.49 0.3L126.94 0.2 123.39 0.3Q121.39 0.3 121.39-0.38 121.39-1.05 122.14-1.3L122.14-1.3Q122.19-1.3 122.34-1.35L122.34-1.35Q123.49-1.75 123.84-2.55 124.19-3.35 124.19-10.3L124.19-10.3 124.19-14.7Q124.19-16.15 123.84-17 123.49-17.85 123.19-18.05 122.89-18.25 122.17-18.38 121.44-18.5 121.12-18.63 120.79-18.75 120.79-19.03 120.79-19.3 120.92-19.45 121.04-19.6 121.42-19.78 121.79-19.95 122.19-20.1L122.19-20.1Q123.59-20.5 124.49-20.9 125.39-21.3 125.87-21.5 126.34-21.7 126.49-21.8L126.49-21.8Q126.84-21.95 127.34-21.95L127.34-21.95Q128.09-21.95 128.09-21L128.09-21 127.79-18.6 127.79-4.9Q127.79-3.4 128.27-2.55 128.74-1.7 129.27-1.5 129.79-1.3 130.49-1.25 131.19-1.2 131.39-1.2L131.39-1.2Q132.09-1.1 132.09-0.5L132.09-0.5Q132.09 0.35 131.24 0.35L131.24 0.35 130.49 0.3ZM126.09-26.65Q125.09-26.65 124.37-27.7 123.64-28.75 123.64-29.43 123.64-30.1 124.52-31.18 125.39-32.25 126.17-32.25 126.94-32.25 127.69-31.23 128.44-30.2 128.44-29.4 128.44-28.6 127.49-27.63 126.54-26.65 126.09-26.65L126.09-26.65ZM135.54-18.15L135.54-18.15 134.99-18.2Q134.04-18.2 134.04-19L134.04-19Q134.04-19.55 134.71-19.83 135.39-20.1 137.21-20.68 139.04-21.25 140.09-21.73 141.14-22.2 141.34-22.2L141.34-22.2Q141.99-22.2 141.99-21.2L141.99-21.2 141.94-19.85Q141.94-18.05 142.06-17.88 142.19-17.7 142.31-17.7 142.44-17.7 143.09-18.7 143.74-19.7 144.94-20.73 146.14-21.75 147.31-21.75 148.49-21.75 149.74-20.93 150.99-20.1 150.99-19.28 150.99-18.45 150.59-17.75L150.59-17.75Q149.89-16.55 149.29-16.55L149.29-16.55Q148.89-16.55 147.86-17.15 146.84-17.75 145.49-17.75 144.14-17.75 142.96-16.65 141.79-15.55 141.79-14.65L141.79-14.65 141.79-9.45 141.84-5.1 141.89-4.2Q141.89-3.15 142.59-2.4 143.29-1.65 143.91-1.55 144.54-1.45 144.99-1.4 145.44-1.35 145.69-1.33 145.94-1.3 146.24-1.2L146.24-1.2Q146.79-1.1 146.79-0.48 146.79 0.15 146.19 0.15L146.19 0.15 141.94-0.1 136.74 0.15Q135.84 0.15 135.74-0.05 135.64-0.25 135.64-0.45L135.64-0.45Q135.64-1.1 136.29-1.3L136.29-1.3Q137.59-1.6 137.86-2.58 138.14-3.55 138.14-6.75L138.14-6.75 138.09-14.8 138.04-16.3Q138.04-16.85 137.89-17.2L137.89-17.2Q137.49-18.15 135.54-18.15ZM155.99-5.9L155.99-9.6 156.19-30.85Q156.19-32 155.81-32.93 155.44-33.85 154.99-34.05 154.53-34.25 152.99-34.25L152.99-34.25Q152.44-34.25 152.44-34.6 152.44-34.95 152.51-35.1 152.59-35.25 152.84-35.38 153.09-35.5 153.44-35.6L153.44-35.6Q154.88-35.9 156.44-36.65L156.44-36.65Q158.88-37.8 159.63-37.8L159.63-37.8Q160.24-37.8 160.24-36.85L160.24-36.85Q160.24-36.65 160.13-35.7L160.13-35.7Q159.84-32.75 159.84-29.25L159.84-29.25 159.84-26.45 159.74-19.8 159.74-4.9Q159.74-3.85 159.91-3.18 160.09-2.5 161.06-1.88 162.03-1.25 163.78-1.25L163.78-1.25Q164.03-1.25 164.24-1 164.44-0.75 164.44-0.5L164.44-0.5Q164.44 0.2 162.88 0.2L162.88 0.2 157.84-0.15Q156.53-0.15 155.36 0.05 154.19 0.25 153.81 0.25 153.44 0.25 153.21 0.08 152.99-0.1 152.99-0.38 152.99-0.65 153.21-0.83 153.44-1 153.94-1.1L153.94-1.1Q155.44-1.5 155.74-2.33 156.03-3.15 156.03-4.6L156.03-4.6 155.99-5.9ZM176.88 0.3L173.33 0.2 169.78 0.3Q167.78 0.3 167.78-0.38 167.78-1.05 168.53-1.3L168.53-1.3Q168.58-1.3 168.73-1.35L168.73-1.35Q169.88-1.75 170.23-2.55 170.58-3.35 170.58-10.3L170.58-10.3 170.58-14.7Q170.58-16.15 170.23-17 169.88-17.85 169.58-18.05 169.28-18.25 168.56-18.38 167.83-18.5 167.51-18.63 167.18-18.75 167.18-19.03 167.18-19.3 167.31-19.45 167.43-19.6 167.81-19.78 168.18-19.95 168.58-20.1L168.58-20.1Q169.98-20.5 170.88-20.9 171.78-21.3 172.26-21.5 172.73-21.7 172.88-21.8L172.88-21.8Q173.23-21.95 173.73-21.95L173.73-21.95Q174.48-21.95 174.48-21L174.48-21 174.18-18.6 174.18-4.9Q174.18-3.4 174.66-2.55 175.13-1.7 175.66-1.5 176.18-1.3 176.88-1.25 177.58-1.2 177.78-1.2L177.78-1.2Q178.48-1.1 178.48-0.5L178.48-0.5Q178.48 0.35 177.63 0.35L177.63 0.35 176.88 0.3ZM172.48-26.65Q171.48-26.65 170.76-27.7 170.03-28.75 170.03-29.43 170.03-30.1 170.91-31.18 171.78-32.25 172.56-32.25 173.33-32.25 174.08-31.23 174.83-30.2 174.83-29.4 174.83-28.6 173.88-27.63 172.93-26.65 172.48-26.65L172.48-26.65ZM191.98 0L191.98 0 188.33-0.2Q187.03-0.2 184.88-0.1L184.88-0.1 182.73 0Q181.98 0 181.98-0.45 181.98-0.9 182.23-1 182.48-1.1 182.85-1.15 183.23-1.2 183.58-1.45L183.58-1.45Q184.53-2.05 184.63-5.08 184.73-8.1 184.73-9.05L184.73-9.05 184.73-16.25Q184.73-17.85 184.15-18.4 183.58-18.95 182.58-18.95L182.58-18.95 182.08-18.95Q181.13-18.95 181.13-19.5L181.13-19.5Q181.13-20 182.2-20.15 183.28-20.3 183.9-20.48 184.53-20.65 185.55-21.08 186.58-21.5 187.2-21.8 187.83-22.1 188.03-22.1L188.03-22.1 188.13-22.1Q188.58-22.1 188.58-21.5L188.58-21.5 188.48-19.35Q188.48-18.05 188.68-18.05 188.88-18.05 189.08-18.3L189.08-18.3Q189.83-19.35 191.08-20.1L191.08-20.1Q193.33-21.5 195.38-21.5 197.43-21.5 199.03-20.88 200.63-20.25 201.53-19.33 202.43-18.4 203.03-17.2L203.03-17.2Q204.03-15.2 204.03-13.1L204.03-13.1 204.03-12.6 204.08-9.95 204.08-4.85Q204.08-2.95 204.6-2.23 205.13-1.5 207.13-1.2L207.13-1.2Q208.13-1.05 208.13-0.45L208.13-0.45Q208.13 0.05 207.13 0.05L207.13 0.05 203.03-0.2 199.18 0Q198.18 0 198.18-0.65L198.18-0.65Q198.18-1.1 198.78-1.25L198.78-1.25 199.43-1.4Q200.53-1.75 200.53-4.75L200.53-4.75 200.53-11.5Q200.53-15.35 198.63-17.32 196.73-19.3 194.33-19.3 191.93-19.3 190.33-18.15 188.73-17 188.38-16 188.03-15 188.03-8.35L188.03-8.35 188.03-6.45Q188.03-3.95 188.55-2.75 189.08-1.55 190.88-1.4L190.88-1.4Q191.38-1.4 192.15-1.23 192.93-1.05 192.93-0.65L192.93-0.65Q192.93 0 191.98 0ZM221.13 0.95Q216.73 0.95 213.65-1.75 210.58-4.45 210.58-9.58 210.58-14.7 213.4-18.15 216.23-21.6 220.73-21.6L220.73-21.6Q222.83-21.6 224.55-20.85 226.28-20.1 227.23-19.03 228.18-17.95 228.83-16.75L228.83-16.75Q229.93-14.7 229.93-13.65L229.93-13.65Q229.93-12.75 227.88-12.75L227.88-12.75 215.03-12.75Q214.63-12.75 214.55-12.68 214.48-12.6 214.48-12.2L214.48-12.2Q214.48-7.5 217-4.8 219.53-2.1 222.93-2.1L222.93-2.1Q225.03-2.1 227.2-3.23 229.38-4.35 229.48-4.35L229.48-4.35Q229.98-4.35 229.98-3.9L229.98-3.9Q229.98-3.3 228.88-2.27 227.78-1.25 226.78-0.6L226.78-0.6Q224.38 0.95 221.13 0.95L221.13 0.95ZM215.43-13.95L215.43-13.95 224.23-14.25Q224.93-14.25 225.1-14.38 225.28-14.5 225.28-14.85L225.28-14.85Q225.28-16.35 223.88-18.35 222.48-20.35 219.98-20.35 217.48-20.35 216.13-18.38 214.78-16.4 214.78-14.65L214.78-14.65Q214.78-13.95 215.43-13.95ZM248.33-20.05L248.33-20.05 248.53-17.05Q248.53-16.2 248.33-15.9 248.13-15.6 247.75-15.6 247.38-15.6 246.95-16.32 246.53-17.05 246-17.9 245.48-18.75 244.3-19.48 243.13-20.2 241.63-20.2 240.13-20.2 239.18-19.48 238.23-18.75 238.23-17.9 238.23-17.05 238.38-16.53 238.53-16 238.9-15.6 239.28-15.2 239.55-14.93 239.83-14.65 240.48-14.35 241.13-14.05 241.45-13.93 241.78-13.8 242.53-13.5L242.53-13.5Q247.08-11.9 248.38-10.38 249.68-8.85 249.68-6 249.68-3.15 247.03-0.75L247.03-0.75Q245.23 0.8 242.08 0.8L242.08 0.8Q239.93 0.8 237.28-0.25L237.28-0.25Q236.53-0.55 236.4-0.58 236.28-0.6 236-0.7 235.73-0.8 235.6-0.83 235.48-0.85 235.28-0.95 235.08-1.05 235-1.13 234.93-1.2 234.83-1.35L234.83-1.35Q234.68-1.6 234.68-2.15L234.68-2.15 234.68-6.5Q234.68-7.05 234.9-7.43 235.13-7.8 235.53-7.8 235.93-7.8 236.1-7.58 236.28-7.35 236.43-6.65 236.58-5.95 236.73-5.65L236.73-5.65Q238.58-1.05 241.93-1.05L241.93-1.05Q243.48-1.05 244.88-1.88 246.28-2.7 246.28-4.48 246.28-6.25 245.13-7.35 243.98-8.45 242.33-9.08 240.68-9.7 239.03-10.38 237.38-11.05 236.23-12.38 235.08-13.7 235.08-15.7L235.08-15.7Q235.08-18.5 237.33-20.2 239.58-21.9 242.28-21.9 244.98-21.9 246.38-21.48 247.78-21.05 248.05-20.7 248.33-20.35 248.33-20.05Z" opacity="1" transform="matrix(1,0,0,1,0,0)" fill="#ffffff" class="wordmark-text-0" data-fill-palette-color="primary" id="text-0"></path></svg></g></svg></g></svg></g></svg></g><g transform="matrix(1,0,0,1,59.5800411261501,0)"><svg viewBox="0 0 72.8399177476998 72.8399177476998" height="72.8399177476998" width="72.8399177476998"><g><svg></svg></g><g id="icon-0"><svg viewBox="0 0 72.8399177476998 72.8399177476998" height="72.8399177476998" width="72.8399177476998"><g><path d="M0 36.42c0-20.114 16.306-36.42 36.42-36.42 20.114 0 36.42 16.306 36.42 36.42 0 20.114-16.306 36.42-36.42 36.42-20.114 0-36.42-16.306-36.42-36.42zM36.42 70.142c18.624 0 33.722-15.098 33.722-33.722 0-18.624-15.098-33.722-33.722-33.722-18.624 0-33.722 15.098-33.722 33.722 0 18.624 15.098 33.722 33.722 33.722z" data-fill-palette-color="tertiary" fill="#ffffff" stroke="transparent"></path></g><g transform="matrix(1,0,0,1,15.343795706883519,21.190849006627698)"><svg viewBox="0 0 42.15232633393276 30.458219734444405" height="30.458219734444405" width="42.15232633393276"><g><svg xmlns="http://www.w3.org/2000/svg" xmlns:xlink="http://www.w3.org/1999/xlink" version="1.1" x="0" y="0" viewBox="-250.00000000000003 364.4682445902567 90.00000000000003 65.03175540974331" style="enable-background:new -255 347 100 100;" xml:space="preserve" height="30.458219734444405" width="42.15232633393276" class="icon-cg-0" data-fill-palette-color="accent" id="cg-0"><path d="M-160.5 366.6c-1.5-2.7-6.5-2.8-11.9-0.5-2.4-1.6-6.3-1.5-9.8 0.6l-47.1 27.2-15.3-4.5-5.4 2.6 24.6 19.8 26.3-15.2-3.8 17.3 5.4-2.1 14.5-24.5-1.8 1.1 11.4-6.6-0.3-0.5 0 0 0.3 0.5 4.6-2.7C-162.4 375.4-158.6 369.8-160.5 366.6z" fill="#ffffff" data-fill-palette-color="accent"></path><polygon points="-221.1,374.9 -225.6,378.6 -214,382.2 -200.9,374.6 " fill="#ffffff" data-fill-palette-color="accent"></polygon><rect x="-249.5" y="423.1" width="89.5" height="6.4" fill="#ffffff" data-fill-palette-color="accent"></rect></svg></g></svg></g></svg></g></svg></g><g></g></svg></g></svg></g></svg></g><defs></defs></svg><rect width="320" height="360" fill="none" stroke="none" visibility="hidden"></rect></g></svg></g></svg>